<svg width="100" height="100" viewBox="0 0 100 100" fill="none" xmlns="http://www.w3.org/2000/svg">
<path d="M74.3361 74.6644L72.0976 77.5694C71.3281 78.5694 70.1653 79.193 68.9049 79.2721C66.0669 79.4526 59.967 78.7169 51.6874 73.9207C39.8252 67.0488 30.9436 55.9683 26.9589 42.8506C24.2433 33.9086 24.9549 27.9754 25.7503 25.2663C26.1065 24.056 26.9702 23.0592 28.1153 22.5282L31.4424 20.9868C32.8324 20.3429 34.4835 20.8305 35.3006 22.1245L43.6196 35.3083C44.518 36.7305 44.0919 38.6121 42.6688 39.5098L38.9694 41.8451C38.5165 42.1304 38.3054 42.6783 38.4496 43.1931C38.4963 43.3607 38.5511 43.5501 38.614 43.7604C41.0176 51.7628 46.4286 58.5339 53.7042 62.6452C53.8952 62.7532 54.0685 62.849 54.2215 62.9313C54.6921 63.1851 55.2731 63.1006 55.651 62.7226L58.7452 59.6283C59.9345 58.4389 61.8636 58.4389 63.0538 59.6283L74.0764 70.6509C75.1589 71.7337 75.2701 73.4516 74.3361 74.6644Z" fill="#F58220"/>
<path d="M50.0001 100C43.2508 100 36.7027 98.6779 30.5374 96.0701C24.5832 93.5517 19.2362 89.9467 14.6447 85.3554C10.0534 80.764 6.44833 75.4169 3.92995 69.4628C1.32225 63.2975 0 56.7492 0 50C0 43.2508 1.32225 36.7025 3.92995 30.5373C6.44833 24.5831 10.0534 19.2361 14.6447 14.6446C19.2361 10.0532 24.5832 6.44833 30.5374 3.92995C36.7027 1.32213 43.2509 0 50.0001 0C56.7493 0 63.2976 1.32213 69.4629 3.92995C75.4171 6.44833 80.7641 10.0533 85.3556 14.6446C89.9469 19.2361 93.552 24.5831 96.0704 30.5373C98.6781 36.7025 100 43.2508 100 50C100 56.7492 98.678 63.2975 96.0704 69.4628C93.552 75.4169 89.9469 80.764 85.3556 85.3554C80.7642 89.9468 75.4171 93.5517 69.4629 96.0701C63.2976 98.6779 56.7494 100 50.0001 100ZM50.0001 3.22315C43.6846 3.22315 37.5588 4.45976 31.7929 6.89843C26.223 9.25426 21.2203 12.6273 16.9239 16.9238C12.6274 21.2202 9.25448 26.2229 6.89855 31.7929C4.45977 37.5587 3.22327 43.6845 3.22327 50C3.22327 56.3155 4.45988 62.4413 6.89855 68.2072C9.25448 73.7771 12.6274 78.7798 16.9239 83.0762C21.2203 87.3727 26.223 90.7456 31.7929 93.1016C37.5588 95.5403 43.6845 96.7768 50.0001 96.7768C56.3156 96.7768 62.4414 95.5402 68.2073 93.1016C73.7773 90.7457 78.78 87.3727 83.0763 83.0762C87.3727 78.7798 90.7457 73.7771 93.1017 68.2072C95.5405 62.4413 96.777 56.3155 96.777 50C96.777 43.6845 95.5403 37.5587 93.1017 31.7929C90.7457 26.223 87.3728 21.2202 83.0763 16.9238C78.7799 12.6273 73.7773 9.25437 68.2073 6.89843C62.4414 4.45965 56.3156 3.22315 50.0001 3.22315Z" fill="#F58220"/>
</svg>
