<svg width="100" height="100" viewBox="0 0 100 100" fill="none" xmlns="http://www.w3.org/2000/svg">
<path d="M73.9245 27.0791H26.0759C21.7433 27.0791 18.2185 30.6039 18.2185 34.9365V65.0638C18.2185 69.3963 21.7433 72.921 26.0759 72.921H73.9245C78.257 72.921 81.7818 69.3962 81.7818 65.0638V34.9365C81.7819 30.6038 78.257 27.0791 73.9245 27.0791ZM78.6659 34.9365V65.0638C78.6659 65.7629 78.5126 66.4263 78.2399 67.0243L58.801 50.0001L78.2399 32.9758C78.5127 33.5738 78.6659 34.2374 78.6659 34.9365ZM73.9245 30.195C74.6363 30.195 75.3114 30.3536 75.9179 30.6359L51.4855 52.0334C50.6388 52.7748 49.3619 52.7751 48.515 52.0334L24.0824 30.6359C24.6888 30.3536 25.364 30.195 26.0758 30.195H73.9245ZM21.7605 67.0243C21.4877 66.4263 21.3345 65.7627 21.3345 65.0638V34.9365C21.3345 34.2374 21.4878 33.5739 21.7605 32.9758L41.1995 50.0001L21.7605 67.0243ZM26.0759 69.8052C25.364 69.8052 24.6888 69.6465 24.0824 69.3643L43.6965 52.1869L46.3474 54.5085C47.3888 55.4205 48.6942 55.8764 50.0002 55.8764C51.3058 55.8764 52.6119 55.4203 53.6531 54.5085L56.304 52.1869L75.918 69.3643C75.3115 69.6465 74.6364 69.8052 73.9246 69.8052H26.0759Z" fill="#F58220"/>
<path d="M96.0702 30.5373C93.5518 24.5831 89.9469 19.236 85.3555 14.6446C80.7641 10.0532 75.4171 6.44823 69.4628 3.92989C63.2976 1.32225 56.7493 0 50.0001 0C43.2509 0 36.7026 1.32225 30.5373 3.92989C24.5831 6.44834 19.2361 10.0532 14.6447 14.6446C10.0533 19.236 6.44834 24.583 3.93001 30.5373C1.32225 36.7025 0 43.2508 0 50C0 56.7492 1.32225 63.2975 3.93001 69.4627C6.44846 75.4169 10.0533 80.764 14.6447 85.3554C19.2361 89.9468 24.5831 93.5518 30.5373 96.0701C36.7026 98.6778 43.2509 100 50.0001 100C56.7493 100 63.2976 98.6778 69.4628 96.0701C75.417 93.5517 80.7641 89.9468 85.3555 85.3554C89.9469 80.764 93.5519 75.417 96.0702 69.4627C98.6779 63.2975 100 56.7492 100 50C100 43.2508 98.6779 36.7026 96.0702 30.5373ZM93.04 68.1811C90.6876 73.7432 87.3193 78.7386 83.0291 83.0289C78.7389 87.3193 73.7433 90.6875 68.1812 93.0399C62.4237 95.4751 56.3066 96.7099 50.0001 96.7099C43.6936 96.7099 37.5765 95.4751 31.819 93.0399C26.257 90.6875 21.2615 87.3191 16.9712 83.0289C12.6809 78.7386 9.31267 73.7432 6.96023 68.1811C4.52501 62.4236 3.29023 56.3065 3.29023 50C3.29023 43.6935 4.52501 37.5764 6.96023 31.8189C9.31278 26.2568 12.681 21.2614 16.9712 16.9711C21.2615 12.6808 26.257 9.31255 31.819 6.96012C37.5765 4.5249 43.6936 3.29012 50.0001 3.29012C56.3066 3.29012 62.4237 4.5249 68.1812 6.96012C73.7433 9.31255 78.7388 12.6809 83.0291 16.9711C87.3194 21.2613 90.6876 26.2568 93.04 31.8189C95.4752 37.5764 96.71 43.6935 96.71 50C96.71 56.3065 95.4752 62.4236 93.04 68.1811Z" fill="#F58220"/>
</svg>
